<svg id="Logo-Nazar-Wht" xmlns="http://www.w3.org/2000/svg" width="173" height="174" viewBox="0 0 173 174">
  <g id="Grupo_8" data-name="Grupo 8">
    <rect id="Rectángulo_1" data-name="Rectángulo 1" width="173" height="174" fill="#fff" opacity="0"/>
    <rect id="Rectángulo_2" data-name="Rectángulo 2" width="173" height="24" fill="#fff"/>
    <rect id="Rectángulo_3" data-name="Rectángulo 3" width="173" height="92" transform="translate(0 82)" fill="#fff"/>
  </g>
  <g id="Grupo_14" data-name="Grupo 14" transform="translate(3.214 34.708)">
    <path id="Trazado_6" data-name="Trazado 6" d="M629.32,765.524h10.56v5.158a16.1,16.1,0,0,1,4.792-4.517,11.939,11.939,0,0,1,5.907-1.357,9.345,9.345,0,0,1,7.369,3q2.661,3,2.661,9.258v20.125h-11.4V779.776a6.672,6.672,0,0,0-1.031-4.219,3.565,3.565,0,0,0-2.9-1.237,4.018,4.018,0,0,0-3.343,1.67q-1.282,1.669-1.282,5.992v15.206H629.32Z" transform="translate(-629.32 -764.809)" fill="#fff"/>
    <path id="Trazado_7" data-name="Trazado 7" d="M696.688,775.781l-10.583-1.221a13.742,13.742,0,0,1,1.728-4.786,9.821,9.821,0,0,1,3.251-3.027,12.752,12.752,0,0,1,4.189-1.431,30.883,30.883,0,0,1,5.767-.507,41.953,41.953,0,0,1,8,.611,9.92,9.92,0,0,1,5.033,2.55,9.063,9.063,0,0,1,2.231,3.8,14.909,14.909,0,0,1,.816,4.7v13.982a18.391,18.391,0,0,0,.259,3.5,16.584,16.584,0,0,0,1.129,3.236H708.114a12.008,12.008,0,0,1-.816-1.865,14.827,14.827,0,0,1-.381-2.012,14.375,14.375,0,0,1-4.326,3.281,16.63,16.63,0,0,1-6.828,1.312q-5.169,0-7.848-2.624a8.7,8.7,0,0,1-2.68-6.47,8.971,8.971,0,0,1,1.931-5.932q1.931-2.325,7.128-3.459,6.229-1.371,8.079-1.923a35.312,35.312,0,0,0,3.917-1.446,4.552,4.552,0,0,0-.843-3.131,3.978,3.978,0,0,0-2.965-.894,7.116,7.116,0,0,0-4.081.955A5.256,5.256,0,0,0,696.688,775.781Zm9.6,6.381a49.178,49.178,0,0,1-4.761,1.58q-3.373.982-4.271,1.937a3.31,3.31,0,0,0-.013,4.577,3.634,3.634,0,0,0,2.68.909,6.425,6.425,0,0,0,3.441-.983,5.711,5.711,0,0,0,2.259-2.4,8.7,8.7,0,0,0,.666-3.682Z" transform="translate(-649.296 -764.809)" fill="#fff"/>
    <path id="Trazado_8" data-name="Trazado 8" d="M742.9,765.922h27.048v7.1L755.226,789.3h15.625v8.289H741.8v-7.872l13.979-15.5H742.9Z" transform="translate(-669.505 -765.207)" fill="#fff"/>
    <path id="Trazado_9" data-name="Trazado 9" d="M802.861,775.781l-10.8-1.221a13.549,13.549,0,0,1,1.763-4.786,9.937,9.937,0,0,1,3.317-3.027,13.19,13.19,0,0,1,4.275-1.431,32.142,32.142,0,0,1,5.886-.507,43.668,43.668,0,0,1,8.162.611,10.2,10.2,0,0,1,5.136,2.55,9.024,9.024,0,0,1,2.277,3.8,14.631,14.631,0,0,1,.834,4.7v13.982a18.018,18.018,0,0,0,.263,3.5,16.362,16.362,0,0,0,1.152,3.236H814.522a11.918,11.918,0,0,1-.833-1.865,14.57,14.57,0,0,1-.389-2.012,14.644,14.644,0,0,1-4.414,3.281,17.274,17.274,0,0,1-6.968,1.312q-5.276,0-8.01-2.624a8.61,8.61,0,0,1-2.735-6.47,8.854,8.854,0,0,1,1.971-5.932q1.971-2.325,7.274-3.459,6.357-1.371,8.246-1.923a36.573,36.573,0,0,0,4-1.446,4.487,4.487,0,0,0-.861-3.131,4.115,4.115,0,0,0-3.026-.894,7.383,7.383,0,0,0-4.165.955A5.247,5.247,0,0,0,802.861,775.781Zm9.8,6.381a50.966,50.966,0,0,1-4.858,1.58q-3.443.982-4.359,1.937a3.262,3.262,0,0,0-.013,4.577,3.755,3.755,0,0,0,2.734.909,6.658,6.658,0,0,0,3.512-.983,5.758,5.758,0,0,0,2.3-2.4,8.55,8.55,0,0,0,.68-3.682Z" transform="translate(-687.144 -764.809)" fill="#fff"/>
    <path id="Trazado_10" data-name="Trazado 10" d="M852.912,765.524h10.571v5.188a12.347,12.347,0,0,1,3.149-4.636,6.317,6.317,0,0,1,4.009-1.267,11.313,11.313,0,0,1,5.466,1.669l-3.5,8.647a8.4,8.4,0,0,0-3.164-.895,3.84,3.84,0,0,0-3.441,1.968q-1.747,2.772-1.748,10.376v10.614H852.912Z" transform="translate(-709.202 -764.809)" fill="#fff"/>
  </g>
</svg>
